{
  "accessors": [
    {
      "bufferView": 2,
      "componentType": 5126,
      "count": 65532,
      "max": [
        0.63166201114654541,
        5.1030941009521484,
        0.463593989610672
      ],
      "min": [
        -0.10384900122880936,
        4.4952459335327148,
        -0.56356298923492432
      ],
      "type": "VEC3"
    },
    {
      "bufferView": 2,
      "byteOffset": 786384,
      "componentType": 5126,
      "count": 65532,
      "max": [
        0.99987995624542236,
        1,
        1
      ],
      "min": [
        -0.99998199939727783,
        -1,
        -1
      ],
      "type": "VEC3"
    },
    {
      "bufferView": 1,
      "componentType": 5126,
      "count": 65532,
      "max": [
        0.99315899610519409,
        0.91865497827529907
      ],
      "min": [
        0,
        0
      ],
      "type": "VEC2"
    },
    {
      "bufferView": 0,
      "componentType": 5125,
      "count": 362490,
      "max": [
        65531
      ],
      "min": [
        0
      ],
      "type": "SCALAR"
    },
    {
      "bufferView": 2,
      "byteOffset": 1572768,
      "componentType": 5126,
      "count": 65532,
      "max": [
        0.65268999338150024,
        5.066565990447998,
        0.4228689968585968
      ],
      "min": [
        -0.017748000100255013,
        4.5023818016052246,
        -0.54329198598861694
      ],
      "type": "VEC3"
    },
    {
      "bufferView": 2,
      "byteOffset": 2359152,
      "componentType": 5126,
      "count": 65532,
      "max": [
        0.99999308586120605,
        0.99999052286148071,
        0.9998212456703186
      ],
      "min": [
        -0.99988013505935669,
        -0.99999243021011353,
        -0.99844813346862793
      ],
      "type": "VEC3"
    },
    {
      "bufferView": 1,
      "byteOffset": 524256,
      "componentType": 5126,
      "count": 65532,
      "max": [
        0.96954602003097534,
        0.8882330060005188
      ],
      "min": [
        0.011505999602377415,
        0.037080999463796616
      ],
      "type": "VEC2"
    },
    {
      "bufferView": 0,
      "byteOffset": 1449960,
      "componentType": 5125,
      "count": 342939,
      "max": [
        65531
      ],
      "min": [
        0
      ],
      "type": "SCALAR"
    },
    {
      "bufferView": 2,
      "byteOffset": 3145536,
      "componentType": 5126,
      "count": 65532,
      "max": [
        0.65078401565551758,
        5.1000790596008301,
        0.32651901245117188
      ],
      "min": [
        -0.087438002228736877,
        4.487548828125,
        -0.53997397422790527
      ],
      "type": "VEC3"
    },
    {
      "bufferView": 2,
      "byteOffset": 3931920,
      "componentType": 5126,
      "count": 65532,
      "max": [
        0.99932211637496948,
        0.99981021881103516,
        0.9952508807182312
      ],
      "min": [
        -0.99982130527496338,
        -0.99998986721038818,
        -0.9847608208656311
      ],
      "type": "VEC3"
    },
    {
      "bufferView": 1,
      "byteOffset": 1048512,
      "componentType": 5126,
      "count": 65532,
      "max": [
        0.99955499172210693,
        0.88233798742294312
      ],
      "min": [
        0.016439000144600868,
        0.10090599954128265
      ],
      "type": "VEC2"
    },
    {
      "bufferView": 0,
      "byteOffset": 2821716,
      "componentType": 5125,
      "count": 328557,
      "max": [
        65531
      ],
      "min": [
        0
      ],
      "type": "SCALAR"
    },
    {
      "bufferView": 2,
      "byteOffset": 4718304,
      "componentType": 5126,
      "count": 65532,
      "max": [
        0.65268999338150024,
        5.1213178634643555,
        0.13562999665737152
      ],
      "min": [
        -0.10367599874734879,
        4.487548828125,
        -0.53974002599716187
      ],
      "type": "VEC3"
    },
    {
      "bufferView": 2,
      "byteOffset": 5504688,
      "componentType": 5126,
      "count": 65532,
      "max": [
        0.99998724460601807,
        0.99999934434890747,
        0.99954819679260254
      ],
      "min": [
        -0.99999773502349854,
        -0.99999958276748657,
        -0.99959218502044678
      ],
      "type": "VEC3"
    },
    {
      "bufferView": 1,
      "byteOffset": 1572768,
      "componentType": 5126,
      "count": 65532,
      "max": [
        0.91857099533081055,
        0.88088500499725342
      ],
      "min": [
        0.00074799999129027128,
        0.16502200067043304
      ],
      "type": "VEC2"
    },
    {
      "bufferView": 0,
      "byteOffset": 4135944,
      "componentType": 5125,
      "count": 320133,
      "max": [
        65531
      ],
      "min": [
        0
      ],
      "type": "SCALAR"
    },
    {
      "bufferView": 2,
      "byteOffset": 6291072,
      "componentType": 5126,
      "count": 65532,
      "max": [
        0.65155500173568726,
        5.1214418411254883,
        -0.069902002811431885
      ],
      "min": [
        -0.090967997908592224,
        4.5022501945495605,
        -0.58461600542068481
      ],
      "type": "VEC3"
    },
    {
      "bufferView": 2,
      "byteOffset": 7077456,
      "componentType": 5126,
      "count": 65532,
      "max": [
        0.99983698129653931,
        0.99997353553771973,
        0.99675506353378296
      ],
      "min": [
        -0.99989962577819824,
        -0.99998986721038818,
        -0.99999576807022095
      ],
      "type": "VEC3"
    },
    {
      "bufferView": 1,
      "byteOffset": 2097024,
      "componentType": 5126,
      "count": 65532,
      "max": [
        1,
        0.85667800903320312
      ],
      "min": [
        0.0024250000715255737,
        0.0063550001941621304
      ],
      "type": "VEC2"
    },
    {
      "bufferView": 0,
      "byteOffset": 5416476,
      "componentType": 5125,
      "count": 306168,
      "max": [
        65531
      ],
      "min": [
        0
      ],
      "type": "SCALAR"
    },
    {
      "bufferView": 2,
      "byteOffset": 7863840,
      "componentType": 5126,
      "count": 19727,
      "max": [
        0.5998079776763916,
        5.092893123626709,
        -0.12681299448013306
      ],
      "min": [
        0.090846002101898193,
        4.6631450653076172,
        -0.58489102125167847
      ],
      "type": "VEC3"
    },
    {
      "bufferView": 2,
      "byteOffset": 8100564,
      "componentType": 5126,
      "count": 19727,
      "max": [
        0.99733853340148926,
        0.99980074167251587,
        0.99564111232757568
      ],
      "min": [
        -0.99973970651626587,
        -0.9965854287147522,
        -0.99999576807022095
      ],
      "type": "VEC3"
    },
    {
      "bufferView": 1,
      "byteOffset": 2621280,
      "componentType": 5126,
      "count": 19727,
      "max": [
        0.99909698963165283,
        0.67400401830673218
      ],
      "min": [
        0.01934799924492836,
        0.057608999311923981
      ],
      "type": "VEC2"
    },
    {
      "bufferView": 0,
      "byteOffset": 6641148,
      "componentType": 5125,
      "count": 89385,
      "max": [
        19726
      ],
      "min": [
        0
      ],
      "type": "SCALAR"
    }
  ],
  "asset": {
    "extras": {
      "author": "Digital Atlas of Ancient Life (https://sketchfab.com/DigitalAtlasOfAncientLife)",
      "license": "CC0-1.0 (http://creativecommons.org/publicdomain/zero/1.0/)",
      "source": "https://sketchfab.com/3d-models/cephalopod-perisphinctes-sp-a57e4e04cbf845d89e3d7d331e5d3cce",
      "title": "Cephalopod: Perisphinctes sp."
    },
    "generator": "Sketchfab-7.80.0",
    "version": "2.0"
  },
  "bufferViews": [
    {
      "buffer": 0,
      "byteLength": 6998688,
      "byteOffset": 0,
      "name": "floatBufferViews",
      "target": 34963
    },
    {
      "buffer": 0,
      "byteLength": 2779096,
      "byteOffset": 6998688,
      "byteStride": 8,
      "name": "floatBufferViews",
      "target": 34962
    },
    {
      "buffer": 0,
      "byteLength": 8337288,
      "byteOffset": 9777784,
      "byteStride": 12,
      "name": "floatBufferViews",
      "target": 34962
    }
  ],
  "buffers": [
    {
      "byteLength": 18115072,
      "uri": "scene.bin"
    }
  ],
  "extensionsUsed": [
    "KHR_materials_unlit"
  ],
  "images": [
    {
      "uri": "textures/PRI_70598_baseColor.jpeg"
    }
  ],
  "materials": [
    {
      "doubleSided": true,
      "emissiveFactor": [
        0,
        0,
        0
      ],
      "extensions": {
        "KHR_materials_unlit": {}
      },
      "name": "PRI_70598",
      "pbrMetallicRoughness": {
        "baseColorFactor": [
          1,
          1,
          1,
          1
        ],
        "baseColorTexture": {
          "index": 0,
          "texCoord": 0
        },
        "metallicFactor": 0,
        "roughnessFactor": 1
      }
    }
  ],
  "meshes": [
    {
      "primitives": [
        {
          "attributes": {
            "NORMAL": 1,
            "POSITION": 0,
            "TEXCOORD_0": 2
          },
          "indices": 3,
          "material": 0,
          "mode": 4
        }
      ]
    },
    {
      "primitives": [
        {
          "attributes": {
            "NORMAL": 5,
            "POSITION": 4,
            "TEXCOORD_0": 6
          },
          "indices": 7,
          "material": 0,
          "mode": 4
        }
      ]
    },
    {
      "primitives": [
        {
          "attributes": {
            "NORMAL": 9,
            "POSITION": 8,
            "TEXCOORD_0": 10
          },
          "indices": 11,
          "material": 0,
          "mode": 4
        }
      ]
    },
    {
      "primitives": [
        {
          "attributes": {
            "NORMAL": 13,
            "POSITION": 12,
            "TEXCOORD_0": 14
          },
          "indices": 15,
          "material": 0,
          "mode": 4
        }
      ]
    },
    {
      "primitives": [
        {
          "attributes": {
            "NORMAL": 17,
            "POSITION": 16,
            "TEXCOORD_0": 18
          },
          "indices": 19,
          "material": 0,
          "mode": 4
        }
      ]
    },
    {
      "primitives": [
        {
          "attributes": {
            "NORMAL": 21,
            "POSITION": 20,
            "TEXCOORD_0": 22
          },
          "indices": 23,
          "material": 0,
          "mode": 4
        }
      ]
    }
  ],
  "nodes": [
    {
      "children": [
        1
      ],
      "name": "RootNode (gltf orientation matrix)",
      "rotation": [
        -0.70710678118654746,
        -0,
        -0,
        0.70710678118654757
      ]
    },
    {
      "children": [
        2
      ],
      "matrix": [
        -0.062813304364681244,
        -0.58896505832672119,
        -0.8057137131690979,
        0,
        -0.083068035542964935,
        0.80759197473526001,
        -0.5838620662689209,
        0,
        0.99456232786178589,
        0.030254751443862915,
        -0.09965168684720993,
        0,
        0.75107765197753906,
        1.0878833532333374,
        2.9595763683319092,
        1
      ],
      "name": "RootNode (model correction matrix)"
    },
    {
      "children": [
        3,
        4,
        5,
        6,
        7,
        8
      ],
      "name": "PRI_70598.obj.cleaner.materialmerger.gles"
    },
    {
      "mesh": 0,
      "name": ""
    },
    {
      "mesh": 1,
      "name": ""
    },
    {
      "mesh": 2,
      "name": ""
    },
    {
      "mesh": 3,
      "name": ""
    },
    {
      "mesh": 4,
      "name": ""
    },
    {
      "mesh": 5,
      "name": ""
    }
  ],
  "samplers": [
    {
      "magFilter": 9729,
      "minFilter": 9987,
      "wrapS": 10497,
      "wrapT": 10497
    }
  ],
  "scene": 0,
  "scenes": [
    {
      "name": "OSG_Scene",
      "nodes": [
        0
      ]
    }
  ],
  "textures": [
    {
      "sampler": 0,
      "source": 0
    }
  ]
}

