{
  "accessors": [
    {
      "bufferView": 2,
      "componentType": 5126,
      "count": 903,
      "max": [
        0.28714698553085327,
        0.49869000911712646,
        1.0
      ],
      "min": [
        -0.28714698553085327,
        -0.49869000911712646,
        -1.0
      ],
      "type": "VEC3"
    },
    {
      "bufferView": 2,
      "byteOffset": 10836,
      "componentType": 5126,
      "count": 903,
      "max": [
        0.9997693300247192,
        0.9998838901519775,
        0.9999915957450867
      ],
      "min": [
        -0.9997693300247192,
        -0.9996778964996338,
        -0.9999996423721313
      ],
      "type": "VEC3"
    },
    {
      "bufferView": 3,
      "componentType": 5126,
      "count": 903,
      "max": [
        0.9683176279067993,
        0.9999996423721313,
        0.83232182264328,
        1.0
      ],
      "min": [
        -0.9683177471160889,
        -0.9919664859771729,
        -0.9998839497566223,
        -1.0
      ],
      "type": "VEC4"
    },
    {
      "bufferView": 1,
      "componentType": 5126,
      "count": 903,
      "max": [
        0.9806259870529175,
        0.9726510047912598
      ],
      "min": [
        0.016424400731921196,
        0.01268010027706623
      ],
      "type": "VEC2"
    },
    {
      "bufferView": 0,
      "componentType": 5125,
      "count": 4818,
      "type": "SCALAR"
    }
  ],
  "asset": {
    "extras": {
      "author": "zixisun02 (https://sketchfab.com/zixisun51)",
      "license": "CC-BY-4.0 (http://creativecommons.org/licenses/by/4.0/)",
      "source": "https://sketchfab.com/3d-models/clownfish-47ba2679d91a4f14b3fc0bf8e3805af5",
      "title": "Clownfish"
    },
    "generator": "Sketchfab-12.68.0",
    "version": "2.0"
  },
  "bufferViews": [
    {
      "buffer": 0,
      "byteLength": 19272,
      "name": "floatBufferViews",
      "target": 34963
    },
    {
      "buffer": 0,
      "byteLength": 7224,
      "byteOffset": 19272,
      "byteStride": 8,
      "name": "floatBufferViews",
      "target": 34962
    },
    {
      "buffer": 0,
      "byteLength": 21672,
      "byteOffset": 26496,
      "byteStride": 12,
      "name": "floatBufferViews",
      "target": 34962
    },
    {
      "buffer": 0,
      "byteLength": 14448,
      "byteOffset": 48168,
      "byteStride": 16,
      "name": "floatBufferViews",
      "target": 34962
    }
  ],
  "buffers": [
    {
      "byteLength": 62616,
      "uri": "scene.bin"
    }
  ],
  "images": [
    {
      "uri": "textures/wire_028149177_baseColor.jpeg"
    },
    {
      "uri": "textures/wire_028149177_metallicRoughness.png"
    },
    {
      "uri": "textures/wire_028149177_normal.png"
    }
  ],
  "materials": [
    {
      "name": "wire_028149177",
      "normalTexture": {
        "index": 2
      },
      "occlusionTexture": {
        "index": 1
      },
      "pbrMetallicRoughness": {
        "baseColorTexture": {
          "index": 0
        },
        "metallicRoughnessTexture": {
          "index": 1
        }
      }
    }
  ],
  "meshes": [
    {
      "name": "defaultMaterial",
      "primitives": [
        {
          "attributes": {
            "NORMAL": 1,
            "POSITION": 0,
            "TANGENT": 2,
            "TEXCOORD_0": 3
          },
          "indices": 4,
          "material": 0,
          "mode": 4
        }
      ]
    }
  ],
  "nodes": [
    {
      "children": [
        1
      ],
      "matrix": [
        1.0,
        0.0,
        0.0,
        0.0,
        0.0,
        2.220446049250313e-16,
        -1.0,
        0.0,
        0.0,
        1.0,
        2.220446049250313e-16,
        0.0,
        0.0,
        0.0,
        0.0,
        1.0
      ],
      "name": "Sketchfab_model"
    },
    {
      "children": [
        2
      ],
      "matrix": [
        1.0,
        0.0,
        0.0,
        0.0,
        0.0,
        -4.371139006309477e-08,
        0.999999999999999,
        0.0,
        0.0,
        -0.999999999999999,
        -4.371139006309477e-08,
        0.0,
        0.0,
        0.0,
        0.0,
        1.0
      ],
      "name": "Collada visual scene group"
    },
    {
      "children": [
        3
      ],
      "name": "Box001"
    },
    {
      "mesh": 0,
      "name": "defaultMaterial"
    }
  ],
  "samplers": [
    {
      "magFilter": 9729,
      "minFilter": 9987,
      "wrapS": 10497,
      "wrapT": 10497
    }
  ],
  "scene": 0,
  "scenes": [
    {
      "name": "Sketchfab_Scene",
      "nodes": [
        0
      ]
    }
  ],
  "textures": [
    {
      "sampler": 0,
      "source": 0
    },
    {
      "sampler": 0,
      "source": 1
    },
    {
      "sampler": 0,
      "source": 2
    }
  ]
}
