{
  "accessors": [
    {
      "bufferView": 2,
      "componentType": 5126,
      "count": 65532,
      "max": [
        46.33856201171875,
        265.10443115234375,
        46.76408386230469
      ],
      "min": [
        -264.2503967285156,
        -23.487014770507813,
        -46.240692138671875
      ],
      "type": "VEC3"
    },
    {
      "bufferView": 2,
      "byteOffset": 786384,
      "componentType": 5126,
      "count": 65532,
      "max": [
        1.0,
        1.0,
        1.0
      ],
      "min": [
        -1.0,
        -0.9999998807907104,
        -1.0
      ],
      "type": "VEC3"
    },
    {
      "bufferView": 1,
      "componentType": 5126,
      "count": 65532,
      "max": [
        0.875,
        1.0
      ],
      "min": [
        0.125,
        -0.0010428261011838913
      ],
      "type": "VEC2"
    },
    {
      "bufferView": 0,
      "componentType": 5125,
      "count": 316590,
      "type": "SCALAR"
    },
    {
      "bufferView": 2,
      "byteOffset": 1572768,
      "componentType": 5126,
      "count": 65532,
      "max": [
        264.84246826171875,
        265.02850341796875,
        46.76408386230469
      ],
      "min": [
        -264.2503967285156,
        -90.53587341308594,
        -46.240692138671875
      ],
      "type": "VEC3"
    },
    {
      "bufferView": 2,
      "byteOffset": 2359152,
      "componentType": 5126,
      "count": 65532,
      "max": [
        0.9999998807907104,
        1.0,
        1.0
      ],
      "min": [
        -0.9999998807907104,
        -1.0,
        -1.0
      ],
      "type": "VEC3"
    },
    {
      "bufferView": 1,
      "byteOffset": 524256,
      "componentType": 5126,
      "count": 65532,
      "max": [
        0.875,
        1.0
      ],
      "min": [
        0.125,
        -0.0010428261011838913
      ],
      "type": "VEC2"
    },
    {
      "bufferView": 0,
      "byteOffset": 1266360,
      "componentType": 5125,
      "count": 317208,
      "type": "SCALAR"
    },
    {
      "bufferView": 2,
      "byteOffset": 3145536,
      "componentType": 5126,
      "count": 65532,
      "max": [
        132.65631103515625,
        -30.095352172851563,
        46.76408386230469
      ],
      "min": [
        -259.74609375,
        -264.4649658203125,
        -46.240692138671875
      ],
      "type": "VEC3"
    },
    {
      "bufferView": 2,
      "byteOffset": 3931920,
      "componentType": 5126,
      "count": 65532,
      "max": [
        1.0,
        1.0,
        1.0
      ],
      "min": [
        -1.0,
        -0.9999996423721313,
        -1.0
      ],
      "type": "VEC3"
    },
    {
      "bufferView": 1,
      "byteOffset": 1048512,
      "componentType": 5126,
      "count": 65532,
      "max": [
        0.875,
        1.0
      ],
      "min": [
        0.125,
        -0.0010428261011838913
      ],
      "type": "VEC2"
    },
    {
      "bufferView": 0,
      "byteOffset": 2535192,
      "componentType": 5125,
      "count": 315135,
      "type": "SCALAR"
    },
    {
      "bufferView": 2,
      "byteOffset": 4718304,
      "componentType": 5126,
      "count": 65532,
      "max": [
        264.84246826171875,
        174.66665649414063,
        46.76408386230469
      ],
      "min": [
        -264.39080810546875,
        -247.57608032226563,
        -47.21195983886719
      ],
      "type": "VEC3"
    },
    {
      "bufferView": 2,
      "byteOffset": 5504688,
      "componentType": 5126,
      "count": 65532,
      "max": [
        1.0,
        0.9999998211860657,
        1.0
      ],
      "min": [
        -1.0,
        -1.0,
        -1.0
      ],
      "type": "VEC3"
    },
    {
      "bufferView": 1,
      "byteOffset": 1572768,
      "componentType": 5126,
      "count": 65532,
      "max": [
        1.0,
        1.142525553703308
      ],
      "min": [
        -0.00071622000541538,
        -0.0010428261011838913
      ],
      "type": "VEC2"
    },
    {
      "bufferView": 0,
      "byteOffset": 3795732,
      "componentType": 5125,
      "count": 284301,
      "type": "SCALAR"
    },
    {
      "bufferView": 2,
      "byteOffset": 6291072,
      "componentType": 5126,
      "count": 65532,
      "max": [
        -30.072601318359375,
        261.099365234375,
        46.76408386230469
      ],
      "min": [
        -260.3130187988281,
        30.521713256835938,
        -46.76408386230469
      ],
      "type": "VEC3"
    },
    {
      "bufferView": 2,
      "byteOffset": 7077456,
      "componentType": 5126,
      "count": 65532,
      "max": [
        0.9999999403953552,
        0.9999985098838806,
        1.0
      ],
      "min": [
        -0.9999999403953552,
        -0.9999997019767761,
        -1.0
      ],
      "type": "VEC3"
    },
    {
      "bufferView": 1,
      "byteOffset": 2097024,
      "componentType": 5126,
      "count": 65532,
      "max": [
        0.8750000596046448,
        1.0
      ],
      "min": [
        0.0,
        -0.0010428261011838913
      ],
      "type": "VEC2"
    },
    {
      "bufferView": 0,
      "byteOffset": 4932936,
      "componentType": 5125,
      "count": 189066,
      "type": "SCALAR"
    },
    {
      "bufferView": 2,
      "byteOffset": 7863840,
      "componentType": 5126,
      "count": 65532,
      "max": [
        68.84420776367188,
        265.1677551269531,
        46.76408386230469
      ],
      "min": [
        -131.881103515625,
        -264.5282897949219,
        -46.76408386230469
      ],
      "type": "VEC3"
    },
    {
      "bufferView": 2,
      "byteOffset": 8650224,
      "componentType": 5126,
      "count": 65532,
      "max": [
        1.0,
        0.999999463558197,
        1.0
      ],
      "min": [
        -0.9999999403953552,
        -0.9999996423721313,
        -1.0
      ],
      "type": "VEC3"
    },
    {
      "bufferView": 1,
      "byteOffset": 2621280,
      "componentType": 5126,
      "count": 65532,
      "max": [
        0.8750000596046448,
        1.0
      ],
      "min": [
        0.0,
        -0.0010428261011838913
      ],
      "type": "VEC2"
    },
    {
      "bufferView": 0,
      "byteOffset": 5689200,
      "componentType": 5125,
      "count": 187227,
      "type": "SCALAR"
    },
    {
      "bufferView": 2,
      "byteOffset": 9436608,
      "componentType": 5126,
      "count": 65532,
      "max": [
        264.9852294921875,
        264.0831604003906,
        46.76408386230469
      ],
      "min": [
        -263.28118896484375,
        -263.4436950683594,
        -47.21195983886719
      ],
      "type": "VEC3"
    },
    {
      "bufferView": 2,
      "byteOffset": 10222992,
      "componentType": 5126,
      "count": 65532,
      "max": [
        1.0,
        0.9999998211860657,
        1.0
      ],
      "min": [
        -1.0,
        -0.9999998807907104,
        -1.0
      ],
      "type": "VEC3"
    },
    {
      "bufferView": 1,
      "byteOffset": 3145536,
      "componentType": 5126,
      "count": 65532,
      "max": [
        0.8750000596046448,
        1.0
      ],
      "min": [
        0.0,
        -0.0010428261011838913
      ],
      "type": "VEC2"
    },
    {
      "bufferView": 0,
      "byteOffset": 6438108,
      "componentType": 5125,
      "count": 191994,
      "type": "SCALAR"
    },
    {
      "bufferView": 2,
      "byteOffset": 11009376,
      "componentType": 5126,
      "count": 65533,
      "max": [
        263.91143798828125,
        160.5636749267578,
        46.76408386230469
      ],
      "min": [
        -263.30548095703125,
        -248.54090881347656,
        -46.240692138671875
      ],
      "type": "VEC3"
    },
    {
      "bufferView": 2,
      "byteOffset": 11795772,
      "componentType": 5126,
      "count": 65533,
      "max": [
        0.9999999403953552,
        1.0,
        1.0
      ],
      "min": [
        -0.9999995827674866,
        -0.9999995827674866,
        -1.0
      ],
      "type": "VEC3"
    },
    {
      "bufferView": 1,
      "byteOffset": 3669792,
      "componentType": 5126,
      "count": 65533,
      "max": [
        0.875,
        1.0
      ],
      "min": [
        0.125,
        -0.0010428261011838913
      ],
      "type": "VEC2"
    },
    {
      "bufferView": 0,
      "byteOffset": 7206084,
      "componentType": 5125,
      "count": 204729,
      "type": "SCALAR"
    },
    {
      "bufferView": 2,
      "byteOffset": 12582168,
      "componentType": 5126,
      "count": 65534,
      "max": [
        264.92193603515625,
        203.18057250976563,
        46.76408386230469
      ],
      "min": [
        -263.79217529296875,
        -248.5326690673828,
        -46.76408386230469
      ],
      "type": "VEC3"
    },
    {
      "bufferView": 2,
      "byteOffset": 13368576,
      "componentType": 5126,
      "count": 65534,
      "max": [
        0.9999997615814209,
        1.0,
        1.0
      ],
      "min": [
        -1.0,
        -1.0,
        -1.0
      ],
      "type": "VEC3"
    },
    {
      "bufferView": 1,
      "byteOffset": 4194056,
      "componentType": 5126,
      "count": 65534,
      "max": [
        0.8750000596046448,
        1.0
      ],
      "min": [
        0.0,
        -0.0010428261011838913
      ],
      "type": "VEC2"
    },
    {
      "bufferView": 0,
      "byteOffset": 8025000,
      "componentType": 5125,
      "count": 169311,
      "type": "SCALAR"
    },
    {
      "bufferView": 2,
      "byteOffset": 14154984,
      "componentType": 5126,
      "count": 46123,
      "max": [
        264.71148681640625,
        265.16766357421875,
        45.7747802734375
      ],
      "min": [
        -263.3031311035156,
        -46.007568359375,
        -46.76408386230469
      ],
      "type": "VEC3"
    },
    {
      "bufferView": 2,
      "byteOffset": 14708460,
      "componentType": 5126,
      "count": 46123,
      "max": [
        0.9999999403953552,
        1.0,
        1.0
      ],
      "min": [
        -0.9999999403953552,
        -0.9999998211860657,
        -1.0
      ],
      "type": "VEC3"
    },
    {
      "bufferView": 1,
      "byteOffset": 4718328,
      "componentType": 5126,
      "count": 46123,
      "max": [
        0.8750000596046448,
        1.0
      ],
      "min": [
        0.0,
        -0.0010428261011838913
      ],
      "type": "VEC2"
    },
    {
      "bufferView": 0,
      "byteOffset": 8702244,
      "componentType": 5125,
      "count": 114657,
      "type": "SCALAR"
    }
  ],
  "asset": {
    "extras": {
      "author": "Vladyslav Holhanov (https://sketchfab.com/vladicom08)",
      "license": "CC-BY-4.0 (http://creativecommons.org/licenses/by/4.0/)",
      "source": "https://sketchfab.com/3d-models/colosseum-a416564e36fb450594c45b1bce119188",
      "title": "Colosseum"
    },
    "generator": "Sketchfab-12.67.0",
    "version": "2.0"
  },
  "bufferViews": [
    {
      "buffer": 0,
      "byteLength": 9160872,
      "name": "floatBufferViews",
      "target": 34963
    },
    {
      "buffer": 0,
      "byteLength": 5087312,
      "byteOffset": 9160872,
      "byteStride": 8,
      "name": "floatBufferViews",
      "target": 34962
    },
    {
      "buffer": 0,
      "byteLength": 15261936,
      "byteOffset": 14248184,
      "byteStride": 12,
      "name": "floatBufferViews",
      "target": 34962
    }
  ],
  "buffers": [
    {
      "byteLength": 29510120,
      "uri": "scene.bin"
    }
  ],
  "materials": [
    {
      "doubleSided": true,
      "name": "lambert1",
      "pbrMetallicRoughness": {
        "baseColorFactor": [
          0.5,
          0.5,
          0.5,
          1.0
        ],
        "metallicFactor": 0.0,
        "roughnessFactor": 0.6
      }
    }
  ],
  "meshes": [
    {
      "name": "colosseum_lambert1_0",
      "primitives": [
        {
          "attributes": {
            "NORMAL": 1,
            "POSITION": 0,
            "TEXCOORD_0": 2
          },
          "indices": 3,
          "material": 0,
          "mode": 4
        }
      ]
    },
    {
      "name": "colosseum_lambert1_0",
      "primitives": [
        {
          "attributes": {
            "NORMAL": 5,
            "POSITION": 4,
            "TEXCOORD_0": 6
          },
          "indices": 7,
          "material": 0,
          "mode": 4
        }
      ]
    },
    {
      "name": "colosseum_lambert1_0",
      "primitives": [
        {
          "attributes": {
            "NORMAL": 9,
            "POSITION": 8,
            "TEXCOORD_0": 10
          },
          "indices": 11,
          "material": 0,
          "mode": 4
        }
      ]
    },
    {
      "name": "colosseum_lambert1_0",
      "primitives": [
        {
          "attributes": {
            "NORMAL": 13,
            "POSITION": 12,
            "TEXCOORD_0": 14
          },
          "indices": 15,
          "material": 0,
          "mode": 4
        }
      ]
    },
    {
      "name": "colosseum_lambert1_0",
      "primitives": [
        {
          "attributes": {
            "NORMAL": 17,
            "POSITION": 16,
            "TEXCOORD_0": 18
          },
          "indices": 19,
          "material": 0,
          "mode": 4
        }
      ]
    },
    {
      "name": "colosseum_lambert1_0",
      "primitives": [
        {
          "attributes": {
            "NORMAL": 21,
            "POSITION": 20,
            "TEXCOORD_0": 22
          },
          "indices": 23,
          "material": 0,
          "mode": 4
        }
      ]
    },
    {
      "name": "colosseum_lambert1_0",
      "primitives": [
        {
          "attributes": {
            "NORMAL": 25,
            "POSITION": 24,
            "TEXCOORD_0": 26
          },
          "indices": 27,
          "material": 0,
          "mode": 4
        }
      ]
    },
    {
      "name": "colosseum_lambert1_0",
      "primitives": [
        {
          "attributes": {
            "NORMAL": 29,
            "POSITION": 28,
            "TEXCOORD_0": 30
          },
          "indices": 31,
          "material": 0,
          "mode": 4
        }
      ]
    },
    {
      "name": "colosseum_lambert1_0",
      "primitives": [
        {
          "attributes": {
            "NORMAL": 33,
            "POSITION": 32,
            "TEXCOORD_0": 34
          },
          "indices": 35,
          "material": 0,
          "mode": 4
        }
      ]
    },
    {
      "name": "colosseum_lambert1_0",
      "primitives": [
        {
          "attributes": {
            "NORMAL": 37,
            "POSITION": 36,
            "TEXCOORD_0": 38
          },
          "indices": 39,
          "material": 0,
          "mode": 4
        }
      ]
    }
  ],
  "nodes": [
    {
      "children": [
        1
      ],
      "matrix": [
        1.0,
        0.0,
        0.0,
        0.0,
        0.0,
        2.220446049250313e-16,
        -1.0,
        0.0,
        0.0,
        1.0,
        2.220446049250313e-16,
        0.0,
        0.0,
        0.0,
        0.0,
        1.0
      ],
      "name": "Sketchfab_model"
    },
    {
      "children": [
        2
      ],
      "matrix": [
        1.0,
        0.0,
        0.0,
        0.0,
        0.0,
        0.0,
        1.0,
        0.0,
        0.0,
        -1.0,
        0.0,
        0.0,
        0.0,
        0.0,
        0.0,
        1.0
      ],
      "name": "e09e77c8ca5c4730ae36d53987864459.fbx"
    },
    {
      "children": [
        3
      ],
      "name": "RootNode"
    },
    {
      "children": [
        4,
        5,
        6,
        7,
        8,
        9,
        10,
        11,
        12,
        13
      ],
      "matrix": [
        1.0,
        0.0,
        0.0,
        0.0,
        0.0,
        2.220446049250313e-16,
        -1.0,
        0.0,
        0.0,
        1.0,
        2.220446049250313e-16,
        0.0,
        0.0,
        0.0,
        0.0,
        1.0
      ],
      "name": "colosseum"
    },
    {
      "mesh": 0,
      "name": "colosseum_lambert1_0"
    },
    {
      "mesh": 1,
      "name": "colosseum_lambert1_0"
    },
    {
      "mesh": 2,
      "name": "colosseum_lambert1_0"
    },
    {
      "mesh": 3,
      "name": "colosseum_lambert1_0"
    },
    {
      "mesh": 4,
      "name": "colosseum_lambert1_0"
    },
    {
      "mesh": 5,
      "name": "colosseum_lambert1_0"
    },
    {
      "mesh": 6,
      "name": "colosseum_lambert1_0"
    },
    {
      "mesh": 7,
      "name": "colosseum_lambert1_0"
    },
    {
      "mesh": 8,
      "name": "colosseum_lambert1_0"
    },
    {
      "mesh": 9,
      "name": "colosseum_lambert1_0"
    }
  ],
  "scene": 0,
  "scenes": [
    {
      "name": "Sketchfab_Scene",
      "nodes": [
        0
      ]
    }
  ]
}
