{
  "accessors": [
    {
      "bufferView": 2,
      "componentType": 5126,
      "count": 65532,
      "max": [
        144.76036071777344,
        84.91199493408203,
        250.05572509765625
      ],
      "min": [
        0.0,
        47.221649169921875,
        0.0
      ],
      "type": "VEC3"
    },
    {
      "bufferView": 2,
      "byteOffset": 786384,
      "componentType": 5126,
      "count": 65532,
      "max": [
        0.9430241584777832,
        0.9999973177909851,
        0.9998989701271057
      ],
      "min": [
        -0.9993636608123779,
        -0.9999973177909851,
        -0.9998695850372314
      ],
      "type": "VEC3"
    },
    {
      "bufferView": 1,
      "componentType": 5126,
      "count": 65532,
      "max": [
        0.3333333432674408,
        1.0
      ],
      "min": [
        0.0,
        0.0
      ],
      "type": "VEC2"
    },
    {
      "bufferView": 0,
      "componentType": 5125,
      "count": 384600,
      "type": "SCALAR"
    },
    {
      "bufferView": 2,
      "byteOffset": 1572768,
      "componentType": 5126,
      "count": 8402,
      "max": [
        140.56228637695313,
        83.63697052001953,
        245.5196075439453
      ],
      "min": [
        12.975448608398438,
        49.13763427734375,
        91.53541564941406
      ],
      "type": "VEC3"
    },
    {
      "bufferView": 2,
      "byteOffset": 1673592,
      "componentType": 5126,
      "count": 8402,
      "max": [
        0.8423874974250793,
        0.8164047598838806,
        0.9991835355758667
      ],
      "min": [
        -0.9430599212646484,
        -0.9999932050704956,
        -0.9946213364601135
      ],
      "type": "VEC3"
    },
    {
      "bufferView": 1,
      "byteOffset": 524256,
      "componentType": 5126,
      "count": 8402,
      "max": [
        0.3333333432674408,
        0.675000011920929
      ],
      "min": [
        0.0297619067132473,
        0.0
      ],
      "type": "VEC2"
    },
    {
      "bufferView": 0,
      "byteOffset": 1538400,
      "componentType": 5125,
      "count": 48744,
      "type": "SCALAR"
    },
    {
      "bufferView": 2,
      "byteOffset": 1774416,
      "componentType": 5126,
      "count": 65532,
      "max": [
        275.2982177734375,
        92.59715270996094,
        244.31903076171875
      ],
      "min": [
        126.77910614013672,
        38.40969467163086,
        13.099449157714844
      ],
      "type": "VEC3"
    },
    {
      "bufferView": 2,
      "byteOffset": 2560800,
      "componentType": 5126,
      "count": 65532,
      "max": [
        0.9999824166297913,
        0.9999967217445374,
        0.999920666217804
      ],
      "min": [
        -0.999989926815033,
        -0.9999967217445374,
        -0.9999990463256836
      ],
      "type": "VEC3"
    },
    {
      "bufferView": 1,
      "byteOffset": 591472,
      "componentType": 5126,
      "count": 65532,
      "max": [
        0.6666666865348816,
        1.0
      ],
      "min": [
        0.3333333432674408,
        0.0
      ],
      "type": "VEC2"
    },
    {
      "bufferView": 0,
      "byteOffset": 1733376,
      "componentType": 5125,
      "count": 385506,
      "type": "SCALAR"
    },
    {
      "bufferView": 2,
      "byteOffset": 3347184,
      "componentType": 5126,
      "count": 8080,
      "max": [
        266.6605224609375,
        91.71735382080078,
        233.61166381835938
      ],
      "min": [
        145.55642700195313,
        43.89885330200195,
        116.70825958251953
      ],
      "type": "VEC3"
    },
    {
      "bufferView": 2,
      "byteOffset": 3444144,
      "componentType": 5126,
      "count": 8080,
      "max": [
        0.9567512273788452,
        0.967006266117096,
        0.9999798536300659
      ],
      "min": [
        -0.8953624367713928,
        -0.9999889135360718,
        -0.9999773502349854
      ],
      "type": "VEC3"
    },
    {
      "bufferView": 1,
      "byteOffset": 1115728,
      "componentType": 5126,
      "count": 8080,
      "max": [
        0.6666666865348816,
        0.6437500715255737
      ],
      "min": [
        0.3630952537059784,
        0.0
      ],
      "type": "VEC2"
    },
    {
      "bufferView": 0,
      "byteOffset": 3275400,
      "componentType": 5125,
      "count": 45918,
      "type": "SCALAR"
    },
    {
      "bufferView": 2,
      "byteOffset": 3541104,
      "componentType": 5126,
      "count": 65532,
      "max": [
        317.3031921386719,
        88.57568359375,
        265.234619140625
      ],
      "min": [
        206.81202697753906,
        0.0,
        43.77674865722656
      ],
      "type": "VEC3"
    },
    {
      "bufferView": 2,
      "byteOffset": 4327488,
      "componentType": 5126,
      "count": 65532,
      "max": [
        0.9999508261680603,
        0.9999821782112122,
        0.9999499320983887
      ],
      "min": [
        -0.9999529719352722,
        -0.9999822378158569,
        -0.9999563097953796
      ],
      "type": "VEC3"
    },
    {
      "bufferView": 1,
      "byteOffset": 1180368,
      "componentType": 5126,
      "count": 65532,
      "max": [
        1.0,
        1.0
      ],
      "min": [
        0.6666666865348816,
        0.0
      ],
      "type": "VEC2"
    },
    {
      "bufferView": 0,
      "byteOffset": 3459072,
      "componentType": 5125,
      "count": 380907,
      "type": "SCALAR"
    },
    {
      "bufferView": 2,
      "byteOffset": 5113872,
      "componentType": 5126,
      "count": 9446,
      "max": [
        307.5234680175781,
        66.36175537109375,
        265.234619140625
      ],
      "min": [
        221.96336364746094,
        5.824062347412109,
        57.631263732910156
      ],
      "type": "VEC3"
    },
    {
      "bufferView": 2,
      "byteOffset": 5227224,
      "componentType": 5126,
      "count": 9446,
      "max": [
        0.9994408488273621,
        0.9994295835494995,
        0.9996921420097351
      ],
      "min": [
        -0.9966160655021667,
        -0.9998501539230347,
        -0.9997865557670593
      ],
      "type": "VEC3"
    },
    {
      "bufferView": 1,
      "byteOffset": 1704624,
      "componentType": 5126,
      "count": 9446,
      "max": [
        1.0,
        0.9468749761581421
      ],
      "min": [
        0.6785714626312256,
        0.0
      ],
      "type": "VEC2"
    },
    {
      "bufferView": 0,
      "byteOffset": 4982700,
      "componentType": 5125,
      "count": 52437,
      "type": "SCALAR"
    }
  ],
  "asset": {
    "extras": {
      "author": "Zorzi (https://sketchfab.com/Zorzi)",
      "license": "CC-BY-4.0 (http://creativecommons.org/licenses/by/4.0/)",
      "source": "https://sketchfab.com/3d-models/flag-a5b2504742164da384a4bdcac2284baf",
      "title": "FLAG"
    },
    "generator": "Sketchfab-12.67.0",
    "version": "2.0"
  },
  "bufferViews": [
    {
      "buffer": 0,
      "byteLength": 5192448,
      "name": "floatBufferViews",
      "target": 34963
    },
    {
      "buffer": 0,
      "byteLength": 1780192,
      "byteOffset": 5192448,
      "byteStride": 8,
      "name": "floatBufferViews",
      "target": 34962
    },
    {
      "buffer": 0,
      "byteLength": 5340576,
      "byteOffset": 6972640,
      "byteStride": 12,
      "name": "floatBufferViews",
      "target": 34962
    }
  ],
  "buffers": [
    {
      "byteLength": 12313216,
      "uri": "scene.bin"
    }
  ],
  "materials": [
    {
      "doubleSided": true,
      "name": "Nuovo",
      "pbrMetallicRoughness": {
        "baseColorFactor": [
          0.8,
          0.0,
          0.0,
          1.0
        ],
        "metallicFactor": 0.7011656497885114,
        "roughnessFactor": 0.6
      }
    },
    {
      "doubleSided": true,
      "name": "Nuovo.1",
      "pbrMetallicRoughness": {
        "baseColorFactor": [
          0.8,
          0.8,
          0.8,
          1.0
        ],
        "metallicFactor": 0.0,
        "roughnessFactor": 0.6
      }
    },
    {
      "doubleSided": true,
      "name": "Nuovo.2",
      "pbrMetallicRoughness": {
        "baseColorFactor": [
          0.02666669999999998,
          0.7999999999999999,
          0.0,
          1.0
        ],
        "metallicFactor": 0.0,
        "roughnessFactor": 0.6
      }
    }
  ],
  "meshes": [
    {
      "name": "Object_0",
      "primitives": [
        {
          "attributes": {
            "NORMAL": 1,
            "POSITION": 0,
            "TEXCOORD_0": 2
          },
          "indices": 3,
          "material": 0,
          "mode": 4
        }
      ]
    },
    {
      "name": "Object_1",
      "primitives": [
        {
          "attributes": {
            "NORMAL": 5,
            "POSITION": 4,
            "TEXCOORD_0": 6
          },
          "indices": 7,
          "material": 0,
          "mode": 4
        }
      ]
    },
    {
      "name": "Object_2",
      "primitives": [
        {
          "attributes": {
            "NORMAL": 9,
            "POSITION": 8,
            "TEXCOORD_0": 10
          },
          "indices": 11,
          "material": 1,
          "mode": 4
        }
      ]
    },
    {
      "name": "Object_3",
      "primitives": [
        {
          "attributes": {
            "NORMAL": 13,
            "POSITION": 12,
            "TEXCOORD_0": 14
          },
          "indices": 15,
          "material": 1,
          "mode": 4
        }
      ]
    },
    {
      "name": "Object_4",
      "primitives": [
        {
          "attributes": {
            "NORMAL": 17,
            "POSITION": 16,
            "TEXCOORD_0": 18
          },
          "indices": 19,
          "material": 2,
          "mode": 4
        }
      ]
    },
    {
      "name": "Object_5",
      "primitives": [
        {
          "attributes": {
            "NORMAL": 21,
            "POSITION": 20,
            "TEXCOORD_0": 22
          },
          "indices": 23,
          "material": 2,
          "mode": 4
        }
      ]
    }
  ],
  "nodes": [
    {
      "children": [
        1
      ],
      "matrix": [
        1.0,
        0.0,
        0.0,
        0.0,
        0.0,
        2.220446049250313e-16,
        -1.0,
        0.0,
        0.0,
        1.0,
        2.220446049250313e-16,
        0.0,
        0.0,
        0.0,
        0.0,
        1.0
      ],
      "name": "Sketchfab_model"
    },
    {
      "children": [
        2
      ],
      "matrix": [
        1.0,
        0.0,
        0.0,
        0.0,
        0.0,
        1.0,
        0.0,
        0.0,
        0.0,
        0.0,
        1.0,
        0.0,
        -200.23568725585938,
        -62.802330017089844,
        -125.05571746826172,
        1.0
      ],
      "name": "flag.obj.cleaner.gles"
    },
    {
      "children": [
        3,
        4,
        5,
        6,
        7,
        8
      ],
      "name": "Object_2"
    },
    {
      "mesh": 0,
      "name": "Object_3"
    },
    {
      "mesh": 1,
      "name": "Object_4"
    },
    {
      "mesh": 2,
      "name": "Object_5"
    },
    {
      "mesh": 3,
      "name": "Object_6"
    },
    {
      "mesh": 4,
      "name": "Object_7"
    },
    {
      "mesh": 5,
      "name": "Object_8"
    }
  ],
  "scene": 0,
  "scenes": [
    {
      "name": "Sketchfab_Scene",
      "nodes": [
        0
      ]
    }
  ]
}
